<svg width="25" height="25" viewBox="0 0 25 25" fill="none" xmlns="http://www.w3.org/2000/svg">
<path d="M18.0554 12.4995C18.0554 14.0336 15.5681 15.2773 12.4999 15.2773C9.43164 15.2773 6.94434 14.0336 6.94434 12.4995" stroke="white" stroke-width="0.813677" stroke-linecap="round"/>
<path d="M18.0554 20.1387C18.0554 21.6728 15.5681 22.9164 12.4999 22.9164C9.43164 22.9164 6.94434 21.6728 6.94434 20.1387" stroke="white" stroke-width="0.813677" stroke-linecap="round"/>
<path d="M6.94458 4.86084H0.69458" stroke="white" stroke-width="0.813677" stroke-linecap="round"/>
<path d="M21.5274 4.86084H18.0552" stroke="white" stroke-width="0.813677" stroke-linecap="round"/>
<path d="M1.96773 12.4995H0.69458" stroke="white" stroke-width="0.813677" stroke-linecap="round"/>
<path d="M6.94438 12.4995H5.09253" stroke="white" stroke-width="0.813677" stroke-linecap="round"/>
<path d="M24.3052 12.4995H18.0552" stroke="white" stroke-width="0.813677" stroke-linecap="round"/>
<path d="M6.94458 20.1387H0.69458" stroke="white" stroke-width="0.813677" stroke-linecap="round"/>
<path d="M21.5274 20.1387H18.0552" stroke="white" stroke-width="0.813677" stroke-linecap="round"/>
<path d="M8.33322 6.69865C7.46883 6.20897 6.94434 5.56575 6.94434 4.86127C6.94434 3.32715 9.43164 2.0835 12.4999 2.0835C15.5681 2.0835 18.0554 3.32715 18.0554 4.86127C18.0554 6.3954 15.5681 7.63905 12.4999 7.63905C11.7632 7.63905 11.0599 7.56734 10.4166 7.43713" stroke="white" stroke-width="0.813677" stroke-linecap="round"/>
<path d="M6.94434 4.86084V20.1386" stroke="white" stroke-width="0.813677" stroke-linecap="round"/>
<path d="M18.0552 4.86084V20.1386" stroke="white" stroke-width="0.813677" stroke-linecap="round"/>
<circle cx="22.9162" cy="4.86106" r="1.38889" stroke="white" stroke-width="0.813677" stroke-linecap="round"/>
<circle cx="22.9162" cy="20.1384" r="1.38889" stroke="white" stroke-width="0.813677" stroke-linecap="round"/>
<circle cx="3.47214" cy="12.4997" r="1.38889" stroke="white" stroke-width="0.813677" stroke-linecap="round"/>
</svg>
