<svg width="25" height="25" viewBox="0 0 25 25" fill="none" xmlns="http://www.w3.org/2000/svg">
<path d="M2.34574 15.5647L8.03846 17.2725C8.2198 17.3269 8.35632 17.4769 8.39345 17.6625L9.37023 22.5465C9.47125 23.0516 10.1709 23.1082 10.3518 22.6258L11.7489 18.9002C11.7806 18.8157 11.8726 18.7705 11.9589 18.797L20.1204 21.3083C20.4639 21.4139 20.8065 21.1421 20.7818 20.7836L19.51 2.34188C19.4818 1.93413 19.0109 1.72203 18.6869 1.97123L2.18067 14.6683C1.84991 14.9228 1.94604 15.4448 2.34574 15.5647Z" stroke="white"/>
<path d="M19.0973 2.0835L9.02783 15.9724" stroke="white" stroke-linecap="round"/>
<path d="M10.4165 22.9166L13.8887 19.4443" stroke="white" stroke-linecap="round"/>
<path d="M11.8057 18.7502L19.4446 2.0835" stroke="white" stroke-linecap="round"/>
</svg>
